<svg xmlns="http://www.w3.org/2000/svg" viewBox="0 0 100 100" fill="none" shape-rendering="auto" aria-hidden="true" width="512" height="512"><!-- Generated by DiceBear (https://www.dicebear.com) --><metadata xmlns:rdf="http://www.w3.org/1999/02/22-rdf-syntax-ns#" xmlns:xsi="http://www.w3.org/2001/XMLSchema-instance" xmlns:dc="http://purl.org/dc/elements/1.1/" xmlns:dcterms="http://purl.org/dc/terms/"><rdf:RDF><rdf:Description><dc:title>Clay</dc:title><dc:creator>DiceBear</dc:creator><dc:source xsi:type="dcterms:URI">https://www.dicebear.com</dc:source><dcterms:license xsi:type="dcterms:URI">https://creativecommons.org/publicdomain/zero/1.0/</dcterms:license><dc:rights>“Clay” (https://www.dicebear.com) by “DiceBear”, licensed under “CC0 1.0” (https://creativecommons.org/publicdomain/zero/1.0/)</dc:rights></rdf:Description></rdf:RDF></metadata><defs><clipPath id="dbclb-gumdrop"><path d="M26 92c-3.5-9-4-20-1-31 3-11.5 8.5-21.5 18.5-27.5 4-2.5 2.5-7 5.5-9s7.5 0 6.5 3.5c-.7 2.5 2 4.5 5.5 8 8.5 7.5 13.5 17 15.5 27s1 20-3 29c-9 1.6-38.5 1.6-47.5 0"/></clipPath><g id="pattern-zig-7afb9d60"><path d="M6 10.5 9.6 6l3.6 4.5L16.8 6l3.6 4.5L24 6" fill="none" stroke="#44403c" stroke-opacity=".2" stroke-width="2" stroke-linecap="round" stroke-linejoin="round"/></g><g id="eyes-down-7afb9d60"><circle cx="10.5" cy="11" r="7.3" fill="#44403c" opacity=".15"/><circle cx="10" cy="10" r="7.3" fill="#ffffff"/><g class="dbcl-ep"><circle cx="10" cy="14.2" r="2.9" fill="#44403c"/><circle cx="9" cy="13" r=".7" fill="#ffffff" opacity=".7"/></g><circle cx="32.5" cy="10.7" r="6.5" fill="#44403c" opacity=".15"/><circle cx="32" cy="9.7" r="6.5" fill="#ffffff"/><g class="dbcl-ep"><circle cx="32" cy="13.5" r="2.6" fill="#44403c"/><circle cx="31.1" cy="12.5" r=".7" fill="#ffffff" opacity=".7"/></g></g><g id="mouth-smileBig-7afb9d60"><path d="M3 2.5a10 6 0 0 0 20 0" fill="none" stroke="#44403c" stroke-width="2.5" stroke-linecap="round"/></g><g id="body-gumdrop-7afb9d60"><ellipse cx="51" cy="92.8" rx="29" ry="3.2" fill="#44403c" opacity=".13"/><path d="M26 92c-3.5-9-4-20-1-31 3-11.5 8.5-21.5 18.5-27.5 4-2.5 2.5-7 5.5-9s7.5 0 6.5 3.5c-.7 2.5 2 4.5 5.5 8 8.5 7.5 13.5 17 15.5 27s1 20-3 29c-9 1.6-38.5 1.6-47.5 0" fill="#d99277"/><g clip-path="url(#dbclb-gumdrop)"><path d="M26 92c-3.5-9-4-20-1-31 3-11.5 8.5-21.5 18.5-27.5 4-2.5 2.5-7 5.5-9s7.5 0 6.5 3.5c-.7 2.5 2 4.5 5.5 8 8.5 7.5 13.5 17 15.5 27s1 20-3 29c-9 1.6-38.5 1.6-47.5 0m2.8 3.2c-3.5-9-4-20-1-31 3-11.5 8.5-21.5 18.5-27.5 4-2.5 2.5-7 5.5-9s7.5 0 6.5 3.5c-.7 2.5 2 4.5 5.5 8 8.5 7.5 13.5 17 15.5 27s1 20-3 29c-9 1.6-38.5 1.6-47.5 0" fill="#ffffff" opacity=".2" fill-rule="evenodd"/><path d="M26 92c-3.5-9-4-20-1-31 3-11.5 8.5-21.5 18.5-27.5 4-2.5 2.5-7 5.5-9s7.5 0 6.5 3.5c-.7 2.5 2 4.5 5.5 8 8.5 7.5 13.5 17 15.5 27s1 20-3 29c-9 1.6-38.5 1.6-47.5 0m-2.8-3.2c-3.5-9-4-20-1-31 3-11.5 8.5-21.5 18.5-27.5 4-2.5 2.5-7 5.5-9s7.5 0 6.5 3.5c-.7 2.5 2 4.5 5.5 8 8.5 7.5 13.5 17 15.5 27s1 20-3 29c-9 1.6-38.5 1.6-47.5 0" fill="#44403c" opacity=".12" fill-rule="evenodd"/></g><use transform="translate(35 72) translate(-0.42762, 0.7273) rotate(5.5061, 15, 8)" href="#pattern-zig-7afb9d60"/><use transform="translate(29 42)" href="#eyes-down-7afb9d60"/><use transform="translate(37 61)" href="#mouth-smileBig-7afb9d60"/></g><g id="animation-none-7afb9d60"></g><clipPath id="clip-7afb9d60"><rect width="100" height="100" rx="0" ry="0"/></clipPath></defs><g clip-path="url(#clip-7afb9d60)"><rect width="100" height="100" fill="#f4e8d4"/><g class="dbcl-c"><use href="#body-gumdrop-7afb9d60"/></g><use href="#animation-none-7afb9d60"/></g></svg>