<svg xmlns="http://www.w3.org/2000/svg" viewBox="0 0 100 100" fill="none" shape-rendering="auto" aria-hidden="true" width="512" height="512"><!-- Generated by DiceBear (https://www.dicebear.com) --><metadata xmlns:rdf="http://www.w3.org/1999/02/22-rdf-syntax-ns#" xmlns:xsi="http://www.w3.org/2001/XMLSchema-instance" xmlns:dc="http://purl.org/dc/elements/1.1/" xmlns:dcterms="http://purl.org/dc/terms/"><rdf:RDF><rdf:Description><dc:title>Clay</dc:title><dc:creator>DiceBear</dc:creator><dc:source xsi:type="dcterms:URI">https://www.dicebear.com</dc:source><dcterms:license xsi:type="dcterms:URI">https://creativecommons.org/publicdomain/zero/1.0/</dcterms:license><dc:rights>“Clay” (https://www.dicebear.com) by “DiceBear”, licensed under “CC0 1.0” (https://creativecommons.org/publicdomain/zero/1.0/)</dc:rights></rdf:Description></rdf:RDF></metadata><defs><clipPath id="dbclb-dollop"><path d="M26 92c-4-9-4.5-20.5 0-30.5 3.5-8 9.5-14 17.5-17-6-1-9-5-7-9 2-3.5 7-4 11-3-3-4-1-8.5 3.5-9 4-.5 7.5 2.5 6.5 6.5 4-2 9 0 9.5 4s-3.5 7.5-8.5 8.5c8 4 14 10 16.5 18 3.5 10 3 22.5-1 31.5-9 1.6-39 1.6-48 0"/></clipPath><g id="eyes-side-d885c0c6"><circle cx="10.5" cy="11" r="7.3" fill="#44403c" opacity=".15"/><circle cx="10" cy="10" r="7.3" fill="#ffffff"/><g class="dbcl-ep"><circle cx="7" cy="11.2" r="3.1" fill="#44403c"/><circle cx="5.9" cy="10" r=".7" fill="#ffffff" opacity=".7"/></g><circle cx="32.5" cy="10.7" r="6.5" fill="#44403c" opacity=".15"/><circle cx="32" cy="9.7" r="6.5" fill="#ffffff"/><g class="dbcl-ep"><circle cx="28.8" cy="10.9" r="2.7" fill="#44403c"/><circle cx="27.9" cy="9.8" r=".7" fill="#ffffff" opacity=".7"/></g></g><g id="mouth-zigzag-d885c0c6"><path d="m4.5 7.5 3.4-3 3.4 3 3.4-3 3.4 3 3.4-3" fill="none" stroke="#44403c" stroke-width="2.2" stroke-linecap="round" stroke-linejoin="round"/></g><g id="body-dollop-d885c0c6"><ellipse cx="51" cy="92.8" rx="29" ry="3.2" fill="#44403c" opacity=".13"/><path d="M26 92c-4-9-4.5-20.5 0-30.5 3.5-8 9.5-14 17.5-17-6-1-9-5-7-9 2-3.5 7-4 11-3-3-4-1-8.5 3.5-9 4-.5 7.5 2.5 6.5 6.5 4-2 9 0 9.5 4s-3.5 7.5-8.5 8.5c8 4 14 10 16.5 18 3.5 10 3 22.5-1 31.5-9 1.6-39 1.6-48 0" fill="#cd8ea6"/><g clip-path="url(#dbclb-dollop)"><path d="M26 92c-4-9-4.5-20.5 0-30.5 3.5-8 9.5-14 17.5-17-6-1-9-5-7-9 2-3.5 7-4 11-3-3-4-1-8.5 3.5-9 4-.5 7.5 2.5 6.5 6.5 4-2 9 0 9.5 4s-3.5 7.5-8.5 8.5c8 4 14 10 16.5 18 3.5 10 3 22.5-1 31.5-9 1.6-39 1.6-48 0m2.8 3.2c-4-9-4.5-20.5 0-30.5 3.5-8 9.5-14 17.5-17-6-1-9-5-7-9 2-3.5 7-4 11-3-3-4-1-8.5 3.5-9 4-.5 7.5 2.5 6.5 6.5 4-2 9 0 9.5 4s-3.5 7.5-8.5 8.5c8 4 14 10 16.5 18 3.5 10 3 22.5-1 31.5-9 1.6-39 1.6-48 0" fill="#ffffff" opacity=".2" fill-rule="evenodd"/><path d="M26 92c-4-9-4.5-20.5 0-30.5 3.5-8 9.5-14 17.5-17-6-1-9-5-7-9 2-3.5 7-4 11-3-3-4-1-8.5 3.5-9 4-.5 7.5 2.5 6.5 6.5 4-2 9 0 9.5 4s-3.5 7.5-8.5 8.5c8 4 14 10 16.5 18 3.5 10 3 22.5-1 31.5-9 1.6-39 1.6-48 0m-2.8-3.2c-4-9-4.5-20.5 0-30.5 3.5-8 9.5-14 17.5-17-6-1-9-5-7-9 2-3.5 7-4 11-3-3-4-1-8.5 3.5-9 4-.5 7.5 2.5 6.5 6.5 4-2 9 0 9.5 4s-3.5 7.5-8.5 8.5c8 4 14 10 16.5 18 3.5 10 3 22.5-1 31.5-9 1.6-39 1.6-48 0" fill="#44403c" opacity=".12" fill-rule="evenodd"/></g><use transform="translate(29 45)" href="#eyes-side-d885c0c6"/><use transform="translate(37 64)" href="#mouth-zigzag-d885c0c6"/></g><g id="animation-none-d885c0c6"></g><clipPath id="clip-d885c0c6"><rect width="100" height="100" rx="0" ry="0"/></clipPath></defs><g clip-path="url(#clip-d885c0c6)"><rect width="100" height="100" fill="#f9e8cf"/><g class="dbcl-c"><use href="#body-dollop-d885c0c6"/></g><use href="#animation-none-d885c0c6"/></g></svg>